{"title":"Pirates.of.the.Caribbean.On.Stranger.Tides.TS.x264.Feel-Free","uid":6415082,"size":1365359783,"categoryP":"video","categoryS":"movies","magnet":"?xt=urn:btih:53b4cd201801f61e14c0e656f0f0d7f8e1bc5ffc&amp;dn=Pirates.of.the.Caribbean.On.Stranger.Tides.TS.x264.Feel-Free&amp;tr=udp%3A%2F%2Ftracker.openbittorrent.com%3A80&amp;tr=udp%3A%2F%2Fopen.demonii.com%3A1337&amp;tr=udp%3A%2F%2Ftracker.coppersurfer.tk%3A6969&amp;tr=udp%3A%2F%2Fexodus.desync.com%3A6969","seeders":0,"leechers":1,"uploader":"hiest","files":-1,"time":1306143883,"description":"Full Credits to (Pitic):\n\n\n ######## ######## ######## ##          ######## ########  ######## ######\n ##       ##       ##       ##          ##       ##     ## ##       ##       \n ##       ##       ##       ##          ##       ##     ## ##       ##       \n ######   ######   ######   ##          ######   ########  ######   ######   \n ##       ##       ##       ##          ##       ##   ##   ##       ##       \n ##       ##       ##       ##          ##       ##    ##  ##       ##       \n ##       ######## ######## ########    ##       ##     ## ######## ######\n\nPirates.of.the.Caribbean.On.Stranger.Tides.TS.x264.Feel-Free\n\n\nGenre:Action | Adventure | Fantasy \n Language:English\n IMDb: &lt;a href=&quot;\nhttp://www.imdb.com/title/tt1298650/&quot; rel=&quot;nofollow&quot; target=&quot;_NEW&quot;&gt;\nhttp://www.imdb.com/title/tt1298650/&lt;/a&gt;\n Source:Piraty.Karibskogo.morya.4.2011.D.TS/Imagine Thanks!\n Subtitles:Romana\n\n Format : MPEG-4\n Format profile : Base Media\n Codec ID : isom\n File size : 1.27 GiB\n Duration : 2h 7mn\n Overall bit rate : 1 428 Kbps\n\n Video\n ID : 1\n Format : AVC\n Format/Info : Advanced Video Codec\n Format profile : &lt;a class=&quot;__cf_email__&quot; href=&quot;/cdn-cgi/l/email-protection&quot; data-cfemail=&quot;d59dbcb2bd9599e1fbe4&quot;&gt;[email&amp;#160;protected]&lt;/a&gt;&lt;script cf-hash='f9e31' type=&quot;text/javascript&quot;&gt;\n/* &lt;![CDATA[ */!function(){try{var t=&quot;currentScript&quot;in document?document.currentScript:function(){for(var t=document.getElementsByTagName(&quot;script&quot;),e=t.length;e--;)if(t[e].getAttribute(&quot;cf-hash&quot;))return t[e]}();if(t&amp;&amp;t.previousSibling){var e,r,n,i,c=t.previousSibling,a=c.getAttribute(&quot;data-cfemail&quot;);if(a){for(e=&quot;&quot;,r=parseInt(a.substr(0,2),16),n=2;a.length-n;n+=2)i=parseInt(a.substr(n,2),16)^r,e+=String.fromCharCode(i);e=document.createTextNode(e),c.parentNode.replaceChild(e,c)}}}catch(u){}}();/* ]]&gt; */&lt;/script&gt;\n Format settings, CABAC : Yes\n Format settings, ReFrames : 3 frames\n Codec ID : avc1\n Codec ID/Info : Advanced Video Coding\n Duration : 2h 7mn\n Bit rate mode : Variable\n Bit rate : 1 193 Kbps\n Maximum bit rate : 4 496 Kbps\n Width : 720 pixels\n Height : 272 pixels\n Display aspect ratio : 2.647\n Frame rate mode : Constant\n Frame rate : 23.976 fps\n Color space : YUV\n Chroma subsampling : 4:2:0\n Bit depth : 8 bits\n Scan type : Progressive\n Bits/(Pixel*Frame) : 0.254\n Stream size : 1.07 GiB (84%)\n Writing library : x264\n\n Audio\n ID : 2\n Format : AAC\n Format/Info : Advanced Audio Codec\n Format version : Version 4\n Format profile : LC\n Format settings, SBR : No\n Codec ID : 40\n Duration : 2h 7mn\n Bit rate mode : Variable\n Bit rate : 224 Kbps\n Maximum bit rate : 271 Kbps\n Channel(s) : 2 channels\n Channel positions : Front: L R\n Sampling rate : 48.0 KHz\n Stream size : 204 MiB (16%)\n\n\n Plot:\n Jack Sparrow and Barbossa embark on a quest to find the elusive fountain of youth, only to discover that Blackbeard and his daughter are after it too.\n\n\nGreets:\n\n INK,CRYS,IMAGINE,LKRG,FXG,3Li,FLAWL3SS,TA,iLLUSiON,ViSiON,DTRG SAFCuk009,LU,TheFalcon007,MYSTiC,PrisM,Noir,WBZ,LAP,Rx,Kingdom,SAFCuk009+Fabreezy,HDLiTE,TWiZTED,ExtraTorrentRG.ELEKTRI4KA,MAGNAT,CM8\n And to all the other p2p grps past and present\n\n\n\n================================== &lt;a href=&quot;\nhttp://thepiratebay.se/user/hiest&quot; rel=&quot;nofollow&quot; target=&quot;_NEW&quot;&gt;\nhttp://thepiratebay.se/user/hiest&lt;/a&gt;\n==================================\n\n\n\nScreenshots:\n &lt;a href=&quot;\nhttp://www.pix2links.com/images/08809352179595879489.png&quot; rel=&quot;nofollow&quot; target=&quot;_NEW&quot;&gt;\nhttp://www.pix2links.com/images/08809352179595879489.png&lt;/a&gt;\n &lt;a href=&quot;\nhttp://www.pix2links.com/images/06940432837539971463.png&quot; rel=&quot;nofollow&quot; target=&quot;_NEW&quot;&gt;\nhttp://www.pix2links.com/images/06940432837539971463.png&lt;/a&gt;\n &lt;a href=&quot;\nhttp://www.pix2links.com/images/13335296270604151970.png&quot; rel=&quot;nofollow&quot; target=&quot;_NEW&quot;&gt;\nhttp://www.pix2links.com/images/13335296270604151970.png&lt;/a&gt;\n &lt;a href=&quot;\nhttp://www.pix2links.com/images/56524562619182285456.png&quot; rel=&quot;nofollow&quot; target=&quot;_NEW&quot;&gt;\nhttp://www.pix2links.com/images/56524562619182285456.png&lt;/a&gt;\n &lt;a href=&quot;\nhttp://www.pix2links.com/images/05506837642559626815.png&quot; rel=&quot;nofollow&quot; target=&quot;_NEW&quot;&gt;\nhttp://www.pix2links.com/images/05506837642559626815.png&lt;/a&gt;\n &lt;a href=&quot;\nhttp://www.pix2links.com/images/08555985179716069486.png&quot; rel=&quot;nofollow&quot; target=&quot;_NEW&quot;&gt;\nhttp://www.pix2links.com/images/08555985179716069486.png&lt;/a&gt;\n &lt;a href=&quot;\nhttp://www.pix2links.com/images/05628760927119961841.png&quot; rel=&quot;nofollow&quot; target=&quot;_NEW&quot;&gt;\nhttp://www.pix2links.com/images/05628760927119961841.png&lt;/a&gt;\n\n\nFull Credits to (Pitic):\n\n\n ######## ######## ######## ##          ######## ########  ######## ######\n ##       ##       ##       ##          ##       ##     ## ##       ##       \n ##       ##       ##       ##          ##       ##     ## ##       ##       \n ######   ######   ######   ##          ######   ########  ######   ######   \n ##       ##       ##       ##          ##       ##   ##   ##       ##       \n ##       ##       ##       ##          ##       ##    ##  ##       ##       \n ##       ######## ######## ########    ##       ##     ## ######## ######","torrent":{"xt":"urn:btih:53b4cd201801f61e14c0e656f0f0d7f8e1bc5ffc","amp;dn":"Pirates.of.the.Caribbean.On.Stranger.Tides.TS.x264.Feel-Free","amp;tr":["udp%3A%2F%2Ftracker.openbittorrent.com%3A80","udp%3A%2F%2Fopen.demonii.com%3A1337","udp%3A%2F%2Ftracker.coppersurfer.tk%3A6969","udp%3A%2F%2Fexodus.desync.com%3A6969"],"infoHash":"53b4cd201801f61e14c0e656f0f0d7f8e1bc5ffc","infoHashBuffer":{"type":"Buffer","data":[83,180,205,32,24,1,246,30,20,192,230,86,240,240,215,248,225,188,95,252]},"announce":[],"urlList":[]}}